<svg width="32" height="32" viewBox="0 0 32 32" fill="none" xmlns="http://www.w3.org/2000/svg">
<g clip-path="url(#clip0_376_25)">
<mask id="mask0_376_25" style="mask-type:luminance" maskUnits="userSpaceOnUse" x="0" y="0" width="32" height="32">
<path d="M32 0H0V32H32V0Z" fill="white"/>
</mask>
<g mask="url(#mask0_376_25)">
<path d="M30 0H2C0.89543 0 0 0.89543 0 2V30C0 31.1046 0.89543 32 2 32H30C31.1046 32 32 31.1046 32 30V2C32 0.89543 31.1046 0 30 0Z" fill="#EFEFEF"/>
<path d="M14.1391 8.25H25.75V13.5275C25.75 14.6215 25.4231 15.6045 24.7694 16.4767L20.2454 22.5526C19.6511 23.3509 18.8562 23.75 17.8609 23.75H6.25V18.4725C6.25 17.3785 6.57686 16.3955 7.23058 15.5232L11.7546 9.44742C12.3489 8.64914 13.1437 8.25 14.1391 8.25ZM21.3374 19.7364V12.0197H10.8409L10.6626 12.2636V19.9804H21.1814L21.3374 19.7364Z" fill="#282828"/>
</g>
</g>
<defs>
<clipPath id="clip0_376_25">
<rect width="32" height="32" fill="white"/>
</clipPath>
</defs>
</svg>
