<svg width="113" height="23" viewBox="0 0 113 23" fill="none" xmlns="http://www.w3.org/2000/svg">
<path d="M24.8323 10.7618L23.815 13.8131L18.1848 21.5235C17.4945 22.4641 16.567 22.9344 15.4021 22.9344H4.07703C2.95531 22.9344 1.99537 22.5297 1.19722 21.7204C0.399074 20.9111 0 19.9377 0 18.8003V0H6.40676V17.3566H19.7703L24.8323 10.7618Z" fill="#282828"/>
<path d="M34.863 0H51.7212V7.80885C51.7212 9.42748 51.2466 10.8821 50.2975 12.1726L43.729 21.1626C42.8661 22.3438 41.712 22.9344 40.2667 22.9344H23.4085V15.1255C23.4085 13.5069 23.8831 12.0523 24.8323 10.7618L31.4008 1.77176C32.2637 0.590585 33.4177 0 34.863 0ZM45.3145 16.9957V5.57775H30.0741L29.8153 5.93866V17.3566H45.088L45.3145 16.9957Z" fill="#282828"/>
<path d="M53.7648 0H60.1715V22.9344L53.7648 23V0Z" fill="#282828"/>
<path d="M68.8461 5.57775L68.5872 5.93866V14.2725L72.6643 8.6291H82.7598C83.9031 8.6291 84.8738 9.03376 85.6719 9.84308C86.4701 10.6524 86.8692 11.6367 86.8692 12.796V15.8474C86.8692 16.8535 86.5564 17.7394 85.9308 18.505L83.7628 21.1298C82.7921 22.3329 81.5302 22.9344 79.977 22.9344H62.1805V17.3566H82.3068V13.6491H70.464L68.5872 15.7817H62.1805V14.2397C62.1805 13.1897 62.4825 12.2382 63.0865 11.3852L69.9139 1.96862C70.3453 1.35616 70.8954 0.874941 71.5641 0.524965C72.2544 0.174988 72.9771 0 73.7321 0H86.8692V5.57775H68.8461Z" fill="#282828"/>
<path d="M106.593 8.6291H113V22.9344H106.593V17.1926L103.455 21.5235C102.764 22.4641 101.826 22.9344 100.639 22.9344H92.3884C91.2666 22.9344 90.3067 22.5297 89.5086 21.7204C88.7104 20.9111 88.3113 19.9377 88.3113 18.8003V14.2397C88.3113 13.2116 88.6133 12.2929 89.2173 11.4836L96.2065 1.903C96.638 1.29054 97.1772 0.820257 97.8244 0.492154C98.4931 0.164051 99.1942 0 99.9276 0H110.994V5.57775H94.9769L94.7181 5.93866V17.3566H105.04L106.593 15.224V8.6291Z" fill="#282828"/>
</svg>
