<svg width="140" height="29" viewBox="0 0 140 29" fill="none" xmlns="http://www.w3.org/2000/svg">
<path d="M30.6975 13.12L29.44 16.84L22.48 26.24C21.6267 27.3867 20.48 27.96 19.04 27.96H5.04C3.65333 27.96 2.46667 27.4667 1.48 26.48C0.493333 25.4933 0 24.3067 0 22.92V0H7.92V21.16H24.44L30.6975 13.12Z" fill="#151515"/>
<path d="M43.0975 0H63.9375V9.52C63.9375 11.4933 63.3508 13.2667 62.1775 14.84L54.0575 25.8C52.9908 27.24 51.5642 27.96 49.7775 27.96H28.9375V18.44C28.9375 16.4667 29.5242 14.6933 30.6975 13.12L38.8175 2.16C39.8842 0.72 41.3108 0 43.0975 0ZM56.0175 20.72V6.8H37.1775L36.8575 7.24V21.16H55.7375L56.0175 20.72Z" fill="#151515"/>
<path d="M66.4638 0H74.3838V27.96L66.4638 28.04V0Z" fill="#151515"/>
<path d="M85.1072 6.8L84.7872 7.24V17.4L89.8272 10.52H102.307C103.721 10.52 104.921 11.0133 105.907 12C106.894 12.9867 107.387 14.1867 107.387 15.6V19.32C107.387 20.5467 107.001 21.6267 106.227 22.56L103.547 25.76C102.347 27.2267 100.787 27.96 98.8672 27.96H76.8672V21.16H101.747V16.64H87.1072L84.7872 19.24H76.8672V17.36C76.8672 16.08 77.2405 14.92 77.9872 13.88L86.4272 2.4C86.9605 1.65333 87.6405 1.06667 88.4672 0.640001C89.3205 0.213334 90.2139 0 91.1472 0H107.387V6.8H85.1072Z" fill="#151515"/>
<path d="M131.77 10.52H139.69V27.96H131.77V20.96L127.89 26.24C127.037 27.3867 125.877 27.96 124.41 27.96H114.21C112.823 27.96 111.637 27.4667 110.65 26.48C109.663 25.4933 109.17 24.3067 109.17 22.92V17.36C109.17 16.1067 109.543 14.9867 110.29 14L118.93 2.32C119.463 1.57333 120.13 1 120.93 0.599999C121.757 0.2 122.623 0 123.53 0H137.21V6.8H117.41L117.09 7.24V21.16H129.85L131.77 18.56V10.52Z" fill="#151515"/>
</svg>
