<svg width="16" height="16" viewBox="0 0 16 16" fill="none" xmlns="http://www.w3.org/2000/svg">
<path fill-rule="evenodd" clip-rule="evenodd" d="M15.2 3.20002C15.2 3.4122 15.1157 3.61568 14.9657 3.7657C14.8157 3.91574 14.6122 4.00002 14.4 4.00002H1.6C1.38783 4.00002 1.18435 3.91574 1.03432 3.7657C0.884289 3.61568 0.800003 3.4122 0.800003 3.20002C0.800003 2.98784 0.884289 2.78436 1.03432 2.63434C1.18435 2.4843 1.38783 2.40002 1.6 2.40002H14.4C14.6122 2.40002 14.8157 2.4843 14.9657 2.63434C15.1157 2.78436 15.2 2.98784 15.2 3.20002ZM15.2 8.00002C15.2 8.2122 15.1157 8.41568 14.9657 8.5657C14.8157 8.71574 14.6122 8.80002 14.4 8.80002H1.6C1.38783 8.80002 1.18435 8.71574 1.03432 8.5657C0.884289 8.41568 0.800003 8.2122 0.800003 8.00002C0.800003 7.78784 0.884289 7.58436 1.03432 7.43434C1.18435 7.2843 1.38783 7.20002 1.6 7.20002H14.4C14.6122 7.20002 14.8157 7.2843 14.9657 7.43434C15.1157 7.58436 15.2 7.78784 15.2 8.00002ZM14.4 13.6C14.6122 13.6 14.8157 13.5157 14.9657 13.3657C15.1157 13.2157 15.2 13.0122 15.2 12.8C15.2 12.5878 15.1157 12.3844 14.9657 12.2343C14.8157 12.0843 14.6122 12 14.4 12H1.6C1.38783 12 1.18435 12.0843 1.03432 12.2343C0.884289 12.3844 0.800003 12.5878 0.800003 12.8C0.800003 13.0122 0.884289 13.2157 1.03432 13.3657C1.18435 13.5157 1.38783 13.6 1.6 13.6H14.4Z" fill="#282828"/>
</svg>
