<svg width="18" height="18" viewBox="0 0 18 18" fill="none" xmlns="http://www.w3.org/2000/svg">
<g clip-path="url(#clip0_481_10)">
<mask id="mask0_481_10" style="mask-type:luminance" maskUnits="userSpaceOnUse" x="0" y="0" width="18" height="18">
<path d="M18 0H0V18H18V0Z" fill="white"/>
</mask>
<g mask="url(#mask0_481_10)">
<path fill-rule="evenodd" clip-rule="evenodd" d="M9.00001 1C4.56668 1 1 4.65541 1 9.19905C1 12.8203 3.30001 15.8949 6.46668 16.9881C6.86668 17.0565 7.00001 16.8173 7.00001 16.5782C7.00001 16.3732 7.00001 15.8608 7.00001 15.1775C4.76667 15.69 4.30001 14.0843 4.30001 14.0843C3.93334 13.1277 3.40001 12.8886 3.40001 12.8886C2.66667 12.3762 3.46667 12.3762 3.46667 12.3762C4.26668 12.4445 4.70001 13.2303 4.70001 13.2303C5.40001 14.4943 6.56668 14.1185 7.03334 13.9135C7.10002 13.3669 7.30001 13.0253 7.53335 12.8203C5.76667 12.6153 3.90001 11.8979 3.90001 8.75493C3.90001 7.86671 4.2 7.11513 4.73334 6.56852C4.66667 6.36354 4.36667 5.54364 4.8 4.38211C4.8 4.38211 5.46667 4.17714 7.00001 5.23618C7.63334 5.06536 8.33334 4.96287 9.00001 4.96287C9.66669 4.96287 10.3666 5.06536 11 5.23618C12.5333 4.17714 13.2 4.38211 13.2 4.38211C13.6333 5.50948 13.3667 6.32938 13.2667 6.56852C13.7667 7.14929 14.1 7.86671 14.1 8.75493C14.1 11.8979 12.2333 12.5812 10.4334 12.7861C10.7334 13.0253 10.9667 13.5377 10.9667 14.2893C10.9667 15.3825 10.9667 16.2708 10.9667 16.544C10.9667 16.749 11.1 17.0223 11.5334 16.954C14.7 15.8949 17 12.8203 17 9.19905C17 4.65541 13.4334 1 9.00001 1Z" fill="#282828"/>
</g>
</g>
<defs>
<clipPath id="clip0_481_10">
<rect width="18" height="18" fill="white"/>
</clipPath>
</defs>
</svg>
