<svg width="24" height="18" viewBox="0 0 24 18" fill="none" xmlns="http://www.w3.org/2000/svg">
<path d="M23.2833 3.50415C23.0207 2.51666 22.25 1.74166 21.2708 1.47916C19.4957 1 12.3791 1 12.3791 1C12.3791 1 5.26249 1 3.48749 1.47916C2.50833 1.74166 1.7375 2.51666 1.475 3.50415C1 5.29166 1 9.01664 1 9.01664C1 9.01664 1 12.7417 1.475 14.5291C1.7375 15.5167 2.50833 16.2583 3.48749 16.5208C5.26249 17 12.3791 17 12.3791 17C12.3791 17 19.4957 17 21.2708 16.5208C22.25 16.2583 23.0207 15.5125 23.2833 14.5291C23.7583 12.7417 23.7583 9.01664 23.7583 9.01664C23.7583 9.01664 23.7583 5.29166 23.2833 3.50415ZM10.0541 12.3999V5.63332L15.9999 9.01664L10.0541 12.3999Z" fill="#282828"/>
</svg>
