<svg width="18" height="18" viewBox="0 0 18 18" fill="none" xmlns="http://www.w3.org/2000/svg">
<path d="M15.5455 1H2.45455C1.65091 1 1 1.65091 1 2.45455V15.5455C1 16.3491 1.65091 17 2.45455 17H15.5455C16.3491 17 17 16.3491 17 15.5455V2.45455C17 1.65091 16.3491 1 15.5455 1ZM6.05746 14.0909H3.912V7.18764H6.05746V14.0909ZM4.96291 6.20073C4.27127 6.20073 3.712 5.64 3.712 4.94982C3.712 4.25964 4.272 3.69964 4.96291 3.69964C5.65236 3.69964 6.21309 4.26036 6.21309 4.94982C6.21309 5.64 5.65236 6.20073 4.96291 6.20073ZM14.0938 14.0909H11.9498V10.7338C11.9498 9.93309 11.9353 8.90327 10.8349 8.90327C9.71855 8.90327 9.54691 9.77527 9.54691 10.6756V14.0909H7.40291V7.18764H9.46109V8.13091H9.49018C9.77673 7.58836 10.4764 7.016 11.52 7.016C13.6924 7.016 14.0938 8.44582 14.0938 10.3047V14.0909Z" fill="#282828"/>
</svg>
